:FULLY-SPECIFIED
:FORCE-ALL-JOINTS-BE-3DOF
:DEGREES
645
root 5.59529 16.5217 -3.04694 16.0756 14.9343 -1.69029
lfemur -17.2228 21.0734 -25.8946
ltibia 34.2104 0 0
lfoot -35.7649 9.44785 0
ltoes 25.0625 0 0
rfemur -54.6339 -25.8323 26.5882
rtibia 62.7359 0 0
rfoot -4.15357 -5.41598 0
rtoes 7.16698 0 0
lowerback -1.15906 -3.46132 -4.85081
upperback -2.57563 -4.612 0.805739
thorax -1.55798 -2.21728 3.53179
lowerneck -9.89734 -7.87914 -0.0475321
upperneck 6.09144 -11.1953 7.21603
head 3.96353 -5.18414 1.55504
lclavicle -4.28494e-14 7.42654e-15 0
lhumerus -41.8048 -67.7497 121.511
lradius 74.4867 0 0
lwrist 23.7924 0 0
lhand -4.82465 1.53883 0
lfingers 7.12502 0 0
lthumb 20.9625 30.4331 0
rclavicle -4.28494e-14 7.42654e-15 0
rhumerus -30.7632 5.23209 -73.3135
rradius 76.4529 0 0
rwrist -22.6855 0 0
rhand -27.3261 -38.5602 0
rfingers 7.12502 0 0
rthumb -0.735021 -788.535 0
646
root 5.57934 16.4875 -2.97947 16.5152 13.6365 -1.47988
lfemur -17.7175 21.819 -26.3081
ltibia 34.8926 0 0
lfoot -35.9155 9.65759 0
ltoes 24.5637 0 0
rfemur -56.1558 -26.6407 28.2409
rtibia 63.4982 0 0
rfoot -4.92173 -4.64393 0
rtoes 6.03534 0 0
lowerback -1.10181 -3.5138 -4.98882
upperback -2.45712 -4.68469 0.624894
thorax -1.46536 -2.25748 3.4204
lowerneck -9.81491 -7.84689 -0.146047
upperneck 5.47773 -11.1087 7.40339
head 3.81496 -5.16057 1.6721
lclavicle -2.67058e-14 8.94853e-15 0
lhumerus -42.6404 -68.3245 122.739
lradius 74.1041 0 0
lwrist 24.0438 0 0
lhand -4.87696 2.03855 0
lfingers 7.12502 0 0
lthumb 20.9121 30.9375 0
rclavicle -2.67058e-14 8.94853e-15 0
rhumerus -32.5609 3.69181 -74.4353
rradius 73.5906 0 0
rwrist -21.0808 0 0
rhand -27.7718 -39.9229 0
rfingers 7.12502 0 0
rthumb -1.16542 -789.895 0
647
root 5.5635 16.4513 -2.90447 16.9272 12.2833 -1.25556
lfemur -18.1804 22.5868 -26.7437
ltibia 35.6086 0 0
lfoot -36.0717 9.96714 0
ltoes 23.9788 0 0
rfemur -57.7141 -27.4518 29.9684
rtibia 64.3359 0 0
rfoot -5.71172 -3.83221 0
rtoes 4.77183 0 0
lowerback -1.03268 -3.57838 -5.12573
upperback -2.32695 -4.7738 0.441473
thorax -1.36611 -2.30634 3.30578
lowerneck -9.73358 -7.80029 -0.244553
upperneck 4.86432 -10.9994 7.56138
head 3.66529 -5.12743 1.7821
lclavicle -9.5484e-15 1.02831e-14 0
lhumerus -43.3836 -68.8739 123.914
lradius 73.688 0 0
lwrist 24.2983 0 0
lhand -4.96223 2.54695 0
lfingers 7.12502 0 0
lthumb 20.8301 31.4533 0
rclavicle -9.5484e-15 1.02831e-14 0
rhumerus -34.3448 2.00654 -75.499
rradius 70.6627 0 0
rwrist -19.5429 0 0
rhand -28.2557 -41.329 0
rfingers 7.12502 0 0
rthumb -1.63281 -791.298 0
648
root 5.54852 16.4136 -2.82116 17.2933 10.9035 -1.01348
lfemur -18.5535 23.3241 -27.1912
ltibia 36.305 0 0
lfoot -36.2363 10.3661 0
ltoes 23.2954 0 0
rfemur -59.1995 -28.2212 31.6688
rtibia 65.1944 0 0
rfoot -6.51752 -3.12028 0
rtoes 3.5334 0 0
lowerback -0.956493 -3.65738 -5.25735
upperback -2.19473 -4.88237 0.264706
thorax -1.26675 -2.36502 3.19511
lowerneck -9.66169 -7.73616 -0.337872
upperneck 4.27367 -10.8654 7.67585
head 3.51805 -5.08271 1.87716
lclavicle 7.0691e-15 1.13759e-14 0
lhumerus -43.9744 -69.3956 124.957
lradius 73.3022 0 0
lwrist 24.5447 0 0
lhand -5.05638 3.02668 0
lfingers 7.12502 0 0
lthumb 20.7395 31.941 0
rclavicle 7.0691e-15 1.13759e-14 0
rhumerus -36.0911 0.271678 -76.3916
rradius 67.8323 0 0
rwrist -18.1419 0 0
rhand -28.7295 -42.7055 0
rfingers 7.12502 0 0
rthumb -2.09044 -792.672 0
649
root 5.53518 16.3749 -2.72816 17.5976 9.52269 -0.746697
lfemur -18.7686 23.9685 -27.6406
ltibia 36.916 0 0
lfoot -36.4143 10.8341 0
ltoes 22.4973 0 0
rfemur -60.4826 -28.9001 33.2212
rtibia 66.004 0 0
rfoot -7.34011 -2.68952 0
rtoes 2.52861 0 0
lowerback -0.88002 -3.75358 -5.38011
upperback -2.07285 -5.01401 0.104706
thorax -1.17537 -2.43488 3.09679
lowerneck -9.60921 -7.65108 -0.420424
upperneck 3.72719 -10.705 7.73312
head 3.37598 -5.02424 1.94897
lclavicle 2.11819e-14 1.21933e-14 0
lhumerus -44.3527 -69.897 125.784
lradius 73.0307 0 0
lwrist 24.7714 0 0
lhand -5.12441 3.43362 0
lfingers 7.12502 0 0
lthumb 20.674 32.3534 0
rclavicle 2.11819e-14 1.21933e-14 0
rhumerus -37.7954 -1.39232 -76.9823
rradius 65.285 0 0
rwrist -16.9436 0 0
rhand -29.1306 -43.9694 0
rfingers 7.12502 0 0
rthumb -2.47781 -793.933 0
650
root 5.52428 16.3352 -2.62359 17.8267 8.16274 -0.445163
lfemur -18.7471 24.4479 -28.0821
ltibia 37.3642 0 0
lfoot -36.6137 11.3405 0
ltoes 21.5647 0 0
rfemur -61.414 -29.4356 34.4855
rtibia 66.6798 0 0
rfoot -8.18745 -2.76319 0
rtoes 2.01755 0 0
lowerback -0.812036 -3.87021 -5.49111
upperback -1.97647 -5.1729 -0.0275347
thorax -1.10163 -2.51746 3.02045
lowerneck -9.58774 -7.54141 -0.486232
upperneck 3.2453 -10.5167 7.72
head 3.24098 -4.94969 1.98881
lclavicle 3.04141e-14 1.27222e-14 0
lhumerus -44.4578 -70.3955 126.307
lradius 72.9777 0 0
lwrist 24.9665 0 0
lhand -5.12045 3.71688 0
lfingers 7.12502 0 0
lthumb 20.6777 32.6354 0
rclavicle 3.04141e-14 1.27222e-14 0
rhumerus -39.4722 -2.83994 -77.1221
rradius 63.2287 0 0
rwrist -16.0084 0 0
rhand -29.382 -45.0273 0
rfingers 7.12502 0 0
rthumb -2.72063 -794.99 0
651
root 5.5232 16.3299 -2.60894 17.8467 7.99101 -0.40017
lfemur -18.7081 24.4891 -28.1434
ltibia 37.3865 0 0
lfoot -36.6592 11.4221 0
ltoes 21.4296 0 0
rfemur -61.4991 -29.4933 34.6209
rtibia 66.7546 0 0
rfoot -8.29832 -2.83699 0
rtoes 2.01049 0 0
lowerback -0.803512 -3.88785 -5.50644
upperback -1.96653 -5.19689 -0.0421182
thorax -1.09384 -2.52974 3.01371
lowerneck -9.58875 -7.52427 -0.493151
upperneck 3.19017 -10.4888 7.70999
head 3.22421 -4.93808 1.99028
lclavicle 3.1019e-14 1.27493e-14 0
lhumerus -44.4483 -70.4606 126.351
lradius 72.9932 0 0
lwrist 24.9873 0 0
lhand -5.10872 3.74023 0
lfingers 7.12502 0 0
lthumb 20.689 32.6575 0
rclavicle 3.1019e-14 1.27493e-14 0
rhumerus -39.6875 -3.0056 -77.0897
rradius 63.0156 0 0
rwrist -15.919 0 0
rhand -29.3978 -45.1416 0
rfingers 7.12502 0 0
rthumb -2.73585 -795.104 0
652
root 5.52068 16.3147 -2.56701 17.8864 7.51914 -0.263401
lfemur -18.5375 24.5796 -28.3315
ltibia 37.3743 0 0
lfoot -36.8477 11.7031 0
ltoes 21.0342 0 0
rfemur -61.7141 -29.6531 34.9864
rtibia 66.9636 0 0
rfoot -8.60446 -3.11767 0
rtoes 2.04265 0 0
lowerback -0.777235 -3.94103 -5.5553
upperback -1.93941 -5.26923 -0.0817064
thorax -1.07269 -2.56661 2.99945
lowerneck -9.59606 -7.47199 -0.511424
upperneck 3.04476 -10.4052 7.67004
head 3.17816 -4.90266 1.98974
lclavicle 3.21276e-14 1.27413e-14 0
lhumerus -44.4085 -70.6409 126.472
lradius 73.0488 0 0
lwrist 25.0387 0 0
lhand -5.06136 3.79426 0
lfingers 7.12502 0 0
lthumb 20.7345 32.7068 0
rclavicle 3.21276e-14 1.27413e-14 0
rhumerus -40.2827 -3.46483 -76.9456
rradius 62.4659 0 0
rwrist -15.7149 0 0
rhand -29.4294 -45.4419 0
rfingers 7.12502 0 0
rthumb -2.76638 -795.404 0
653
root 5.51761 16.2907 -2.50077 17.9209 6.80695 -0.0366256
lfemur -18.1801 24.6788 -28.6444
ltibia 37.2449 0 0
lfoot -37.2252 12.2145 0
ltoes 20.3963 0 0
rfemur -62.0017 -29.8916 35.5219
rtibia 67.2821 0 0
rfoot -9.06926 -3.66742 0
rtoes 2.17569 0 0
lowerback -0.733264 -4.02906 -5.63836
upperback -1.89912 -5.389 -0.139932
thorax -1.04148 -2.62738 2.98469
lowerneck -9.61467 -7.38441 -0.537386
upperneck 2.83653 -10.267 7.58851
head 3.10902 -4.84333 1.98104
lclavicle 3.28861e-14 1.25932e-14 0
lhumerus -44.317 -70.9131 126.643
lradius 73.1564 0 0
lwrist 25.1068 0 0
lhand -4.96701 3.8576 0
lfingers 7.12502 0 0
lthumb 20.8252 32.7608 0
rclavicle 3.28861e-14 1.25932e-14 0
rhumerus -41.1833 -4.16183 -76.6323
rradius 61.7015 0 0
rwrist -15.4786 0 0
rhand -29.457 -45.8697 0
rfingers 7.12502 0 0
rthumb -2.7931 -795.832 0
